<?xml version="1.0" encoding="UTF-8"?>
<svg width="44px" height="44px" viewBox="0 0 44 44" version="1.1" xmlns="http://www.w3.org/2000/svg" xmlns:xlink="http://www.w3.org/1999/xlink">
    <!-- Generator: Sketch 50.2 (55047) - http://www.bohemiancoding.com/sketch -->
    <title>Shape</title>
    <desc>Created with Sketch.</desc>
    <defs></defs>
    <g id="Page-1" stroke="none" stroke-width="1" fill="none" fill-rule="evenodd">
        <g id="Desktop" transform="translate(-478.000000, -200.000000)" fill="#FFFFFF" fill-rule="nonzero">
            <g id="instagram" transform="translate(478.000000, 200.000000)">
                <path d="M43.1,22.3 C43.1,26.6 43.1,29.5 43,31.1 C42.8,35 41.7,38 39.5,40.1 C37.3,42.2 34.4,43.4 30.5,43.6 C28.9,43.7 25.9,43.7 21.7,43.7 C17.4,43.7 14.5,43.7 12.9,43.6 C9,43.4 6,42.3 3.9,40.1 C1.8,38 0.6,35 0.4,31.1 C0.3,29.5 0.3,26.5 0.3,22.3 C0.3,18.1 0.3,15.1 0.4,13.5 C0.6,9.6 1.7,6.6 3.9,4.5 C6,2.4 9,1.2 12.9,1 C14.5,0.9 17.5,0.9 21.7,0.9 C26,0.9 28.9,0.9 30.5,1 C34.4,1.2 37.4,2.3 39.5,4.5 C41.6,6.7 42.8,9.6 43,13.5 C43,15.1 43.1,18 43.1,22.3 Z M23.8,4.7 C22.5,4.7 21.8,4.7 21.7,4.7 C21.6,4.7 20.9,4.7 19.6,4.7 C18.3,4.7 17.3,4.7 16.7,4.7 C16,4.7 15.1,4.7 14,4.8 C12.9,4.8 11.9,4.9 11.1,5.1 C10.3,5.2 9.6,5.4 9.1,5.6 C8.2,6 7.4,6.5 6.6,7.2 C5.9,7.9 5.4,8.7 5,9.7 C4.8,10.2 4.6,10.9 4.5,11.7 C4.4,12.5 4.3,13.4 4.2,14.6 C4.2,15.7 4.1,16.6 4.1,17.3 C4.1,18 4.1,19 4.1,20.2 C4.1,21.5 4.1,22.2 4.1,22.3 C4.1,22.4 4.1,23.1 4.1,24.4 C4.1,25.7 4.1,26.7 4.1,27.3 C4.1,28 4.1,28.9 4.2,30 C4.2,31.1 4.3,32.1 4.5,32.9 C4.7,33.7 4.8,34.4 5,34.9 C5.4,35.8 5.9,36.6 6.6,37.4 C7.3,38.1 8.1,38.6 9.1,39 C9.6,39.2 10.3,39.4 11.1,39.5 C11.9,39.6 12.8,39.7 14,39.8 C15.2,39.9 16,39.9 16.7,39.9 C17.4,39.9 18.4,39.9 19.6,39.9 C20.9,39.9 21.6,39.9 21.7,39.9 C21.8,39.9 22.5,39.9 23.8,39.9 C25.1,39.9 26.1,39.9 26.7,39.9 C27.4,39.9 28.3,39.9 29.4,39.8 C30.5,39.8 31.5,39.7 32.3,39.5 C33.1,39.4 33.8,39.2 34.3,39 C35.2,38.6 36,38.1 36.8,37.4 C37.5,36.7 38,35.9 38.4,34.9 C38.6,34.4 38.8,33.7 38.9,32.9 C39,32.1 39.1,31.2 39.2,30 C39.2,28.9 39.3,28 39.3,27.3 C39.3,26.6 39.3,25.6 39.3,24.4 C39.3,23.1 39.3,22.4 39.3,22.3 C39.3,22.2 39.3,21.5 39.3,20.2 C39.3,18.9 39.3,17.9 39.3,17.3 C39.3,16.6 39.3,15.7 39.2,14.6 C39.2,13.5 39.1,12.5 38.9,11.7 C38.8,10.9 38.6,10.2 38.4,9.7 C38,8.8 37.5,8 36.8,7.2 C36.1,6.5 35.3,6 34.3,5.6 C33.8,5.4 33.1,5.2 32.3,5.1 C31.5,5 30.6,4.9 29.4,4.8 C28.3,4.8 27.4,4.7 26.7,4.7 C26.1,4.7 25.1,4.7 23.8,4.7 Z M29.4,14.5 C31.5,16.6 32.6,19.2 32.6,22.3 C32.6,25.4 31.5,27.9 29.4,30.1 C27.3,32.2 24.7,33.3 21.6,33.3 C18.5,33.3 16,32.2 13.8,30.1 C11.7,28 10.6,25.4 10.6,22.3 C10.6,19.2 11.7,16.7 13.8,14.5 C15.9,12.4 18.5,11.3 21.6,11.3 C24.7,11.3 27.3,12.3 29.4,14.5 Z M26.7,27.3 C28.1,25.9 28.8,24.2 28.8,22.3 C28.8,20.4 28.1,18.6 26.7,17.2 C25.3,15.8 23.6,15.1 21.6,15.1 C19.6,15.1 17.9,15.8 16.5,17.2 C15.1,18.6 14.4,20.3 14.4,22.3 C14.4,24.3 15.1,26 16.5,27.3 C17.9,28.7 19.6,29.4 21.6,29.4 C23.6,29.4 25.3,28.7 26.7,27.3 Z M34.9,9 C35.4,9.5 35.7,10.1 35.7,10.8 C35.7,11.5 35.4,12.1 34.9,12.6 C34.4,13.1 33.8,13.4 33.1,13.4 C32.4,13.4 31.8,13.1 31.3,12.6 C30.8,12.1 30.5,11.5 30.5,10.8 C30.5,10.1 30.8,9.5 31.3,9 C31.8,8.5 32.4,8.2 33.1,8.2 C33.8,8.2 34.4,8.5 34.9,9 Z" id="Shape"></path>
            </g>
        </g>
    </g>
</svg>