<?xml version="1.0" encoding="UTF-8"?>
<svg width="44px" height="44px" viewBox="0 0 44 44" version="1.1" xmlns="http://www.w3.org/2000/svg" xmlns:xlink="http://www.w3.org/1999/xlink">
    <!-- Generator: Sketch 50.2 (55047) - http://www.bohemiancoding.com/sketch -->
    <title>Shape</title>
    <desc>Created with Sketch.</desc>
    <defs></defs>
    <g id="Page-1" stroke="none" stroke-width="1" fill="none" fill-rule="evenodd">
        <g id="Desktop" transform="translate(-431.000000, -322.000000)" fill="#FFFFFF" fill-rule="nonzero">
            <g id="linkedin" transform="translate(431.000000, 322.000000)">
                <path d="M43.1,8.9 L43.1,35.7 C43.1,37.9 42.3,39.8 40.7,41.4 C39.1,43 37.2,43.8 35,43.8 L8.3,43.8 C6.1,43.8 4.2,43 2.6,41.4 C1,39.8 0.2,37.9 0.2,35.7 L0.2,8.9 C0.2,6.7 1,4.8 2.6,3.2 C4.2,1.6 6.1,0.8 8.3,0.8 L35,0.8 C37.2,0.8 39.1,1.6 40.7,3.2 C42.3,4.8 43.1,6.7 43.1,8.9 Z M13.7,11.4 C13.7,10.4 13.3,9.6 12.7,9 C12,8.3 11.2,8 10.1,8 C9,8 8.1,8.3 7.5,8.9 C6.8,9.5 6.5,10.3 6.5,11.3 C6.5,12.2 6.8,13 7.5,13.7 C8.2,14.3 9,14.7 10.1,14.7 C11.2,14.7 12.1,14.4 12.8,13.7 C13.4,13.1 13.7,12.3 13.7,11.4 Z M6.8,36.7 L13.2,36.7 L13.2,17.3 L6.8,17.3 L6.8,36.7 Z M30,36.7 L36.4,36.7 L36.4,25.6 C36.4,22.7 35.7,20.6 34.4,19.1 C33,17.6 31.2,16.9 29,16.9 C26.5,16.9 24.5,18 23.2,20.2 L23.3,20.2 L23.3,17.4 L16.9,17.4 C17,18.6 17,25.1 16.9,36.8 L23.3,36.8 L23.3,25.9 C23.3,25.2 23.4,24.7 23.5,24.3 C23.8,23.6 24.2,23.1 24.8,22.6 C25.4,22.1 26,21.9 26.9,21.9 C29.1,21.9 30.1,23.4 30.1,26.3 L30.1,36.7 L30,36.7 Z" id="Shape"></path>
            </g>
        </g>
    </g>
</svg>