<svg class="Header--header__logo__svg--2-kC_" viewBox="0 0 576 91"><g fill="currentColor" fill-rule="evenodd"><path d="M62.1313 33.2541l-8.167 7.044c-4.823-5.476-10.989-8.159-18.401-8.143-6.738.014-12.411 2.337-16.926 6.87-4.514 4.534-6.716 10.217-6.701 17.052.014 6.833 2.24 12.508 6.774 17.022 4.533 4.515 10.216 6.716 16.954 6.702 7.604-.016 13.855-2.821 18.56-8.413l8.099 7.009c-6.528 7.713-16.144 12.258-26.635 12.28-9.915.021-18.391-3.234-25.336-9.764-6.848-6.626-10.331-14.897-10.352-24.811-.021-9.914 3.427-18.2 10.246-24.856 6.917-6.656 15.38-9.946 25.294-9.967 10.684-.023 19.548 4.001 26.591 11.975"></path><path d="M67.8281 89.4543l-.142-67.089 11.551-.024.142 67.089z"></path><path d="M88.4282 40.8986l11.647-.024.06 28.298c.016 7.315 4.161 10.867 10.611 10.853 6.449-.013 10.579-3.679 10.564-10.995l-.06-28.201 11.647-.025.062 28.972c.014 6.738-2.093 11.94-6.32 15.51-4.228 3.57-9.518 5.314-15.967 5.328-6.449.013-11.746-1.708-15.893-5.26-4.146-3.553-6.275-8.554-6.289-15.195l-.062-29.261z"></path><path d="M177.8408 75.5524c2.786-2.797 4.126-6.361 4.117-10.596-.009-4.236-1.365-7.794-4.161-10.579-2.702-2.785-6.073-4.223-10.212-4.214-4.139.009-7.698 1.461-10.579 4.258-2.786 2.797-4.222 6.361-4.212 10.597.008 4.235 1.46 7.793 4.256 10.578 2.895 2.786 6.458 4.222 10.598 4.213 4.139-.008 7.504-1.46 10.193-4.257zm-35.681 13.744l-.142-67.089 11.551-.024.054 25.604c1.626-4.72 7.49-8.102 15.48-8.119 6.833-.014 12.613 2.38 17.243 7.28 4.727 4.802 7.05 10.765 7.065 17.984.016 7.218-2.281 13.191-6.988 18.11-4.61 4.822-10.379 7.241-17.213 7.256-7.989.017-13.868-3.34-15.514-8.053l.015 7.027-11.551.024z"></path><path d="M200.6016 89.1725l-.143-67.089 11.455-.024.053 25.315c2.204-4.625 7.491-7.716 14.133-7.73 11.166-.024 17.726 7.374 17.752 19.405l.063 30.031-11.453.025-.061-28.395c-.014-6.642-3.585-10.773-9.745-10.76-6.256.014-10.674 4.643-10.659 11.285l.059 27.913-11.454.024z"></path><path d="M287.6968 75.6086c2.881-2.99 4.317-6.554 4.308-10.885-.009-4.332-1.46-7.891-4.354-10.772-2.893-2.978-6.458-4.414-10.693-4.405-4.332.009-7.89 1.46-10.771 4.451-2.786 2.893-4.222 6.457-4.213 10.789.01 4.332 1.46 7.89 4.259 10.867 2.893 2.882 6.457 4.318 10.789 4.309 4.235-.009 7.794-1.46 10.675-4.354m-37.177-10.797c-.015-7.22 2.571-13.385 7.662-18.305 5.091-4.92 11.341-7.436 18.754-7.451 7.411-.016 13.672 2.473 18.784 7.371 5.112 4.898 7.724 11.053 7.739 18.272.015 7.219-2.57 13.384-7.661 18.304-5.091 4.92-11.342 7.436-18.753 7.451-7.412.016-13.674-2.473-18.785-7.371-5.112-4.898-7.724-11.053-7.74-18.271"></path><path d="M309.9497 40.4289l11.647-.025.06 28.299c.015 7.315 4.162 10.867 10.61 10.853 6.449-.013 10.58-3.679 10.565-10.995l-.06-28.202 11.647-.024.061 28.972c.015 6.738-2.092 11.94-6.32 15.51-4.227 3.57-9.517 5.314-15.967 5.328-6.448.013-11.746-1.708-15.893-5.26-4.146-3.553-6.274-8.554-6.288-15.195l-.062-29.261z"></path><path d="M366.2583 73.9982c2.221 3.46 6.943 6.049 12.814 6.037 6.064-.013 8.658-2.329 8.652-5.312-.004-1.637-1.161-2.982-2.799-3.845-1.061-.672-3.084-1.341-4.528-1.819-1.445-.478-4.334-1.338-5.972-2.008-7.803-2.775-11.95-6.713-11.965-13.643-.01-4.524 1.62-7.993 4.887-10.599 3.363-2.606 7.403-3.961 12.216-3.972 6.834-.014 12.037 2.381 15.704 7.09l-6.434 6.847c-2.124-2.69-5.303-4.031-9.442-4.023-3.561.008-5.867 1.746-5.862 4.344.004 1.637.872 2.501 2.221 3.364.771.48 2.697 1.246 3.95 1.725 1.445.382 4.141 1.338 6.068 2.008 8.959 3.158 13.01 7.48 13.025 14.41.019 8.952-6.704 15.416-19.891 15.443-9.723.021-16.949-3.717-20.042-9.775l7.398-6.272z"></path><path d="M439.9927 59.2116c-.006-2.888-1.263-5.388-3.673-7.404-2.411-2.113-5.204-3.165-8.574-3.159-3.561.008-6.735 1.074-9.33 3.101-2.594 2.026-4.032 4.532-4.315 7.517l25.892-.055zm-37.624 5.277c-.016-7.7 2.377-13.865 7.083-18.592 4.803-4.727 10.863-7.05 18.273-7.065 7.027-.015 12.808 2.282 17.246 6.99 4.533 4.707 6.759 10.477 6.773 17.407.003 1.444-.089 2.792-.183 4.043l-37.732.08c.402 7.7 6.092 12.693 14.658 12.675 5.005-.011 9.333-1.849 13.078-5.611l6.945 6.723c-5.474 5.787-12.205 8.689-20.387 8.706-7.605.016-13.865-2.28-18.591-6.794-4.727-4.514-7.145-10.573-7.162-18.177l-.001-.385z"></path><path d="M469.3555 73.1369c-4.609.01-8.35 3.768-8.34 8.376.009 4.609 3.767 8.351 8.376 8.341 4.609-.01 8.35-3.767 8.34-8.376-.01-4.609-3.767-8.351-8.376-8.341" data-part="dot"></path><path d="M511.6939 42.6427l-41.051 13.198-.067-31.617 41.051-13.174.067 31.593zm7.756-25.766l-.035-16.588-56.662 18.217.102 48.08 56.595-18.28199V16.8767z" data-part="flag-left"></path><path d="M561.4399 43.1867l-41.905 13.466-.067-31.575 38.603-12.439-8.813 18.702 12.182 11.846zm10.565-43.187l-60.258 19.296687V67.3917l64.253-20.683-17.457-16.975 13.462-29.734z" data-part="flag-right"></path></g></svg>