<?xml version="1.0" encoding="UTF-8"?>
<svg width="198px" height="198px" viewBox="0 0 198 198" version="1.1" xmlns="http://www.w3.org/2000/svg" xmlns:xlink="http://www.w3.org/1999/xlink">
    <!-- Generator: Sketch 52.5 (67469) - http://www.bohemiancoding.com/sketch -->
    <title>amazon</title>
    <desc>Created with Sketch.</desc>
    <g id="Page-1" stroke="none" stroke-width="1" fill="none" fill-rule="evenodd">
        <g id="amazon" transform="translate(-2.000000, 0.000000)" fill="#000000">
            <path d="M101.384,0.628 C46.988,0.628 2.888,44.72 2.888,99.12 C2.888,153.52 46.984,197.62 101.384,197.62 C155.792,197.62 199.884,153.52 199.884,99.12 C199.884,44.72 155.788,0.628 101.384,0.628 Z M109.992,56.728 C108.116,54.056 104.64,52.704 101.42,52.704 L100.348,52.704 C94.988,53.244 90.168,56.188 88.832,62.088 C88.568,63.424 87.76,64.76 86.152,65.032 L71.16,63.156 C70.084,62.892 68.48,62.084 69.008,59.944 C72.228,43.06 86.688,37.172 100.344,36.38 L103.564,36.38 C111.064,36.38 120.704,38.52 126.86,44.136 C134.36,51.096 133.556,60.48 133.556,70.644 L133.556,94.752 C133.556,101.988 136.508,105.196 139.448,108.948 C140.26,110.284 140.528,111.9 139.184,112.972 C136.248,115.652 130.62,120.472 127.404,123.152 C126.332,123.94 124.988,123.94 123.652,123.408 C118.568,119.128 117.76,117.252 114.816,113.236 C109.724,118.588 105.44,121.532 100.348,123.152 C97.136,123.94 93.652,124.48 89.372,124.48 C76.512,124.48 66.332,116.456 66.332,100.644 C66.332,88.064 73.036,79.488 82.944,75.464 C88.028,73.056 94.192,71.988 100.352,71.184 C104.368,70.644 108.392,70.38 111.868,70.112 L111.868,67.98 C111.868,64.236 112.14,59.948 109.992,56.728 Z M150.556,141.12 C149,142.368 147.336,143.488 145.68,144.48 L145.608,144.528 C132.952,152.48 116.64,157.356 102.216,157.668 C101.764,157.684 101.316,157.692 100.872,157.692 C78.2,157.684 61.344,145.284 45.964,131.936 C45.212,131.336 44.684,130.428 44.692,129.436 C44.684,128.664 45.012,127.904 45.56,127.404 C46.112,126.88 46.864,126.608 47.604,126.608 C48.188,126.608 48.76,126.764 49.336,127.076 C65.728,136.168 81.972,145.388 101.868,145.388 C102.328,145.388 102.796,145.388 103.26,145.372 C115.924,145.1 129.596,142.004 142.62,136.724 L142.62,136.708 L143.824,136.232 L144.744,135.848 C145.368,135.576 146.032,135.276 146.68,135.02 C147.26,134.748 147.884,134.604 148.484,134.604 C150.392,134.612 152.156,136.012 152.188,138.088 C152.204,139.268 151.532,140.396 150.556,141.12 Z M157.992,146.62 C157.36,147.112 156.632,147.448 155.772,147.456 L155.756,147.456 C155.176,147.456 154.492,147.26 153.968,146.76 C153.428,146.252 153.172,145.504 153.188,144.876 C153.188,144.448 153.272,144.056 153.416,143.696 C154,142.148 154.884,139.82 155.62,137.484 C156.364,135.172 156.916,132.78 156.892,131.492 C156.9,131.156 156.86,130.928 156.828,130.82 C156.804,130.812 156.772,130.796 156.728,130.772 C156.588,130.7 156.336,130.624 156,130.552 C155.328,130.396 154.36,130.324 153.272,130.332 C151.732,130.332 149.96,130.472 148.288,130.636 C146.344,130.932 144.68,131.088 143.544,131.324 L143.452,131.348 L143.344,131.356 C143.228,131.364 143.1,131.372 142.96,131.372 C142.38,131.372 141.724,131.216 141.164,130.772 C140.592,130.312 140.256,129.544 140.272,128.864 C140.312,127.628 140.992,126.824 141.804,126.224 C143.108,125.272 144.516,124.472 146.06,123.84 L146.06,123.768 L147.38,123.34 L147.42,123.332 L149.764,122.544 L149.764,122.7 C152.076,122.192 154.388,121.996 156.484,121.996 C159.4,122.004 161.812,122.356 163.468,122.988 C164.032,123.232 164.54,123.448 165.076,124.036 L165.14,124.116 L165.196,124.2 C165.728,124.996 166,125.952 166.048,127.232 L166.064,127.984 C165.976,132.784 163.92,141.284 157.992,146.62 Z" id="Shape" fill-rule="nonzero"></path>
            <path d="M111.868,82.448 C107.852,82.448 103.836,82.704 100.352,83.512 C93.932,85.396 88.836,89.412 88.836,97.98 C88.836,104.676 92.32,109.224 98.212,109.224 C99.016,109.224 99.82,108.96 100.352,108.96 C103.836,108.156 107.056,105.74 108.924,102 C112.144,96.64 111.868,91.812 111.868,85.664 L111.868,82.448 Z" id="Path"></path>
        </g>
    </g>
</svg>