<?xml version="1.0" encoding="UTF-8"?>
<svg width="576px" height="91px" viewBox="0 0 576 91" version="1.1" xmlns="http://www.w3.org/2000/svg" xmlns:xlink="http://www.w3.org/1999/xlink">
    <!-- Generator: Sketch 52.6 (67491) - http://www.bohemiancoding.com/sketch -->
    <title>clubhouse</title>
    <desc>Created with Sketch.</desc>
    <g id="Page-1" stroke="none" stroke-width="1" fill="none" fill-rule="evenodd">
        <g id="clubhouse" fill="#000000">
            <path d="M62.1313,33.2541 L53.9643,40.2981 C49.1413,34.8221 42.9753,32.1391 35.5633,32.1551 C28.8253,32.1691 23.1523,34.4921 18.6373,39.0251 C14.1233,43.5591 11.9213,49.2421 11.9363,56.0771 C11.9503,62.9101 14.1763,68.5851 18.7103,73.0991 C23.2433,77.6141 28.9263,79.8151 35.6643,79.8011 C43.2683,79.7851 49.5193,76.9801 54.2243,71.3881 L62.3233,78.3971 C55.7953,86.1101 46.1793,90.6551 35.6883,90.6771 C25.7733,90.6981 17.2973,87.4431 10.3523,80.9131 C3.5043,74.2871 0.0213,66.0161 0.0003,56.1021 C-0.0207,46.1881 3.4273,37.9021 10.2463,31.2461 C17.1633,24.5901 25.6263,21.3001 35.5403,21.2791 C46.2243,21.2561 55.0883,25.2801 62.1313,33.2541" id="Path"></path>
            <polygon id="Path" points="67.8281 89.4543 67.6861 22.3653 79.2371 22.3413 79.3791 89.4303"></polygon>
            <path d="M88.4282,40.8986 L100.0752,40.8746 L100.1352,69.1726 C100.1512,76.4876 104.2962,80.0396 110.7462,80.0256 C117.1952,80.0126 121.3252,76.3466 121.3102,69.0306 L121.2502,40.8296 L132.8972,40.8046 L132.9592,69.7766 C132.9732,76.5146 130.8662,81.7166 126.6392,85.2866 C122.4112,88.8566 117.1212,90.6006 110.6722,90.6146 C104.2232,90.6276 98.9262,88.9066 94.7792,85.3546 C90.6332,81.8016 88.5042,76.8006 88.4902,70.1596 L88.4282,40.8986 Z" id="Path"></path>
            <path d="M177.8408,75.5524 C180.6268,72.7554 181.9668,69.1914 181.9578,64.9564 C181.9488,60.7204 180.5928,57.1624 177.7968,54.3774 C175.0948,51.5924 171.7238,50.1544 167.5848,50.1634 C163.4458,50.1724 159.8868,51.6244 157.0058,54.4214 C154.2198,57.2184 152.7838,60.7824 152.7938,65.0184 C152.8018,69.2534 154.2538,72.8114 157.0498,75.5964 C159.9448,78.3824 163.5078,79.8184 167.6478,79.8094 C171.7868,79.8014 175.1518,78.3494 177.8408,75.5524 Z M142.1598,89.2964 L142.0178,22.2074 L153.5688,22.1834 L153.6228,47.7874 C155.2488,43.0674 161.1128,39.6854 169.1028,39.6684 C175.9358,39.6544 181.7158,42.0484 186.3458,46.9484 C191.0728,51.7504 193.3958,57.7134 193.4108,64.9324 C193.4268,72.1504 191.1298,78.1234 186.4228,83.0424 C181.8128,87.8644 176.0438,90.2834 169.2098,90.2984 C161.2208,90.3154 155.3418,86.9584 153.6958,82.2454 L153.7108,89.2724 L142.1598,89.2964 Z" id="Shape"></path>
            <path d="M200.6016,89.1725 L200.4586,22.0835 L211.9136,22.0595 L211.9666,47.3745 C214.1706,42.7495 219.4576,39.6585 226.0996,39.6445 C237.2656,39.6205 243.8256,47.0185 243.8516,59.0495 L243.9146,89.0805 L232.4616,89.1055 L232.4006,60.7105 C232.3866,54.0685 228.8156,49.9375 222.6556,49.9505 C216.3996,49.9645 211.9816,54.5935 211.9966,61.2355 L212.0556,89.1485 L200.6016,89.1725 Z" id="Path"></path>
            <path d="M287.6968,75.6086 C290.5778,72.6186 292.0138,69.0546 292.0048,64.7236 C291.9958,60.3916 290.5448,56.8326 287.6508,53.9516 C284.7578,50.9736 281.1928,49.5376 276.9578,49.5466 C272.6258,49.5556 269.0678,51.0066 266.1868,53.9976 C263.4008,56.8906 261.9648,60.4546 261.9738,64.7866 C261.9838,69.1186 263.4338,72.6766 266.2328,75.6536 C269.1258,78.5356 272.6898,79.9716 277.0218,79.9626 C281.2568,79.9536 284.8158,78.5026 287.6968,75.6086 M250.5198,64.8116 C250.5048,57.5916 253.0908,51.4266 258.1818,46.5066 C263.2728,41.5866 269.5228,39.0706 276.9358,39.0556 C284.3468,39.0396 290.6078,41.5286 295.7198,46.4266 C300.8318,51.3246 303.4438,57.4796 303.4588,64.6986 C303.4738,71.9176 300.8888,78.0826 295.7978,83.0026 C290.7068,87.9226 284.4558,90.4386 277.0448,90.4536 C269.6328,90.4696 263.3708,87.9806 258.2598,83.0826 C253.1478,78.1846 250.5358,72.0296 250.5198,64.8116" id="Shape"></path>
            <path d="M309.9497,40.4289 L321.5967,40.4039 L321.6567,68.7029 C321.6717,76.0179 325.8187,79.5699 332.2667,79.5559 C338.7157,79.5429 342.8467,75.8769 342.8317,68.5609 L342.7717,40.3589 L354.4187,40.3349 L354.4797,69.3069 C354.4947,76.0449 352.3877,81.2469 348.1597,84.8169 C343.9327,88.3869 338.6427,90.1309 332.1927,90.1449 C325.7447,90.1579 320.4467,88.4369 316.2997,84.8849 C312.1537,81.3319 310.0257,76.3309 310.0117,69.6899 L309.9497,40.4289 Z" id="Path"></path>
            <path d="M366.2583,73.9982 C368.4793,77.4582 373.2013,80.0472 379.0723,80.0352 C385.1363,80.0222 387.7303,77.7062 387.7243,74.7232 C387.7203,73.0862 386.5633,71.7412 384.9253,70.8782 C383.8643,70.2062 381.8413,69.5372 380.3973,69.0592 C378.9523,68.5812 376.0633,67.7212 374.4253,67.0512 C366.6223,64.2762 362.4753,60.3382 362.4603,53.4082 C362.4503,48.8842 364.0803,45.4152 367.3473,42.8092 C370.7103,40.2032 374.7503,38.8482 379.5633,38.8372 C386.3973,38.8232 391.6003,41.2182 395.2673,45.9272 L388.8333,52.7742 C386.7093,50.0842 383.5303,48.7432 379.3913,48.7512 C375.8303,48.7592 373.5243,50.4972 373.5293,53.0952 C373.5333,54.7322 374.4013,55.5962 375.7503,56.4592 C376.5213,56.9392 378.4473,57.7052 379.7003,58.1842 C381.1453,58.5662 383.8413,59.5222 385.7683,60.1922 C394.7273,63.3502 398.7783,67.6722 398.7933,74.6022 C398.8123,83.5542 392.0893,90.0182 378.9023,90.0452 C369.1793,90.0662 361.9533,86.3282 358.8603,80.2702 L366.2583,73.9982 Z" id="Path"></path>
            <path d="M439.9927,59.2116 C439.9867,56.3236 438.7297,53.8236 436.3197,51.8076 C433.9087,49.6946 431.1157,48.6426 427.7457,48.6486 C424.1847,48.6566 421.0107,49.7226 418.4157,51.7496 C415.8217,53.7756 414.3837,56.2816 414.1007,59.2666 L439.9927,59.2116 Z M402.3687,64.4886 C402.3527,56.7886 404.7457,50.6236 409.4517,45.8966 C414.2547,41.1696 420.3147,38.8466 427.7247,38.8316 C434.7517,38.8166 440.5327,41.1136 444.9707,45.8216 C449.5037,50.5286 451.7297,56.2986 451.7437,63.2286 C451.7467,64.6726 451.6547,66.0206 451.5607,67.2716 L413.8287,67.3516 C414.2307,75.0516 419.9207,80.0446 428.4867,80.0266 C433.4917,80.0156 437.8197,78.1776 441.5647,74.4156 L448.5097,81.1386 C443.0357,86.9256 436.3047,89.8276 428.1227,89.8446 C420.5177,89.8606 414.2577,87.5646 409.5317,83.0506 C404.8047,78.5366 402.3867,72.4776 402.3697,64.8736 L402.3687,64.4886 Z" id="Shape"></path>
            <path d="M469.3555,73.1369 C464.7465,73.1469 461.0055,76.9049 461.0155,81.5129 C461.0245,86.1219 464.7825,89.8639 469.3915,89.8539 C474.0005,89.8439 477.7415,86.0869 477.7315,81.4779 C477.7215,76.8689 473.9645,73.1269 469.3555,73.1369" id="Path"></path>
            <path d="M511.6939,42.6427 L470.6429,55.8407 L470.5759,24.2237 L511.6269,11.0497 L511.6939,42.6427 Z M519.4499,16.8767 L519.4149,0.2887 L462.7529,18.5057 L462.8549,66.5857 L519.4499,48.30371 L519.4499,16.8767 Z" id="Shape"></path>
            <path d="M561.4399,43.1867 L519.5349,56.6527 L519.4679,25.0777 L558.0709,12.6387 L549.2579,31.3407 L561.4399,43.1867 Z M572.0049,-0.0003 L511.7469,19.296387 L511.7469,67.3917 L575.9999,46.7087 L558.5429,29.7337 L572.0049,-0.0003 Z" id="Shape"></path>
        </g>
    </g>
</svg>