<?xml version="1.0" encoding="UTF-8"?>
<svg width="175px" height="144px" viewBox="0 0 175 144" version="1.1" xmlns="http://www.w3.org/2000/svg" xmlns:xlink="http://www.w3.org/1999/xlink">
    <!-- Generator: Sketch 52.6 (67491) - http://www.bohemiancoding.com/sketch -->
    <title>neonhorse</title>
    <desc>Created with Sketch.</desc>
    <defs>
        <filter x="-7.8%" y="-9.6%" width="115.6%" height="119.3%" filterUnits="objectBoundingBox" id="filter-1">
            <feOffset dx="0" dy="2" in="SourceAlpha" result="shadowOffsetOuter1"></feOffset>
            <feGaussianBlur stdDeviation="2" in="shadowOffsetOuter1" result="shadowBlurOuter1"></feGaussianBlur>
            <feColorMatrix values="0 0 0 0 0   0 0 0 0 0   0 0 0 0 0  0 0 0 0.5 0" type="matrix" in="shadowBlurOuter1" result="shadowMatrixOuter1"></feColorMatrix>
            <feMerge>
                <feMergeNode in="shadowMatrixOuter1"></feMergeNode>
                <feMergeNode in="SourceGraphic"></feMergeNode>
            </feMerge>
        </filter>
    </defs>
    <g id="Page-1" stroke="none" stroke-width="1" fill="none" fill-rule="evenodd">
        <g id="neonhorse" filter="url(#filter-1)" transform="translate(4.000000, 2.000000)">
            <g id="whiterays" transform="translate(13.000000, 18.000000)">
                <g id="L15" transform="translate(116.000000, 97.000000)">
                    <g id="path-1-link" fill="#000000">
                        <path d="M0,0.1137621 L10.287543,8.113762" id="path-1"></path>
                    </g>
                    <g id="path-1-link" stroke="#E0D1F3" stroke-width="2">
                        <path d="M0,0.1137621 L10.287543,8.113762" id="path-1"></path>
                    </g>
                </g>
                <g id="L13" transform="translate(131.649000, 71.000000) scale(-1, 1) translate(-131.649000, -71.000000) translate(121.149000, 69.000000)">
                    <g id="path-3-link" fill="#000000">
                        <path d="M0.691919,0 L20.457081,3.0558695" id="path-3"></path>
                    </g>
                    <g id="path-3-link" stroke="#E0D1F3" stroke-width="2">
                        <path d="M0.691919,0 L20.457081,3.0558695" id="path-3"></path>
                    </g>
                </g>
                <g id="L11" transform="translate(120.227028, 32.500000) scale(-1, 1) translate(-120.227028, -32.500000) translate(112.227028, 26.000000)">
                    <g id="path-5-link" fill="#000000">
                        <path d="M0,0 L15.227028,12.9667885" id="path-5"></path>
                    </g>
                    <g id="path-5-link" stroke="#E0D1F3" stroke-width="2">
                        <path d="M0,0 L15.227028,12.9667885" id="path-5"></path>
                    </g>
                </g>
                <g id="L9" transform="translate(88.000000, 9.500000) scale(-1, 1) translate(-88.000000, -9.500000) translate(85.000000, 0.000000)">
                    <g id="path-7-link" fill="#000000">
                        <path d="M0,0.037109375 L5.2270285,18.9667885" id="path-7"></path>
                    </g>
                    <g id="path-7-link" stroke="#E0D1F3" stroke-width="2">
                        <path d="M0,0.037109375 L5.2270285,18.9667885" id="path-7"></path>
                    </g>
                </g>
                <g id="L7" transform="translate(52.000000, 0.000000)">
                    <g id="path-9-link" fill="#000000">
                        <path d="M0,0.037109375 L5.2270285,18.9667885" id="path-9"></path>
                    </g>
                    <g id="path-9-link" stroke="#E0D1F3" stroke-width="2">
                        <path d="M0,0.037109375 L5.2270285,18.9667885" id="path-9"></path>
                    </g>
                </g>
                <g id="L5" transform="translate(13.000000, 26.000000)">
                    <g id="path-11-link" fill="#000000">
                        <path d="M0,0 L15.2270285,12.9667885" id="path-11"></path>
                    </g>
                    <g id="path-11-link" stroke="#E0D1F3" stroke-width="2">
                        <path d="M0,0 L15.2270285,12.9667885" id="path-11"></path>
                    </g>
                </g>
                <g id="L3" transform="translate(0.000000, 69.000000)">
                    <g id="path-13-link" fill="#000000">
                        <path d="M0.542918539,0 L20.3080814,3.0558695" id="path-13"></path>
                    </g>
                    <g id="path-13-link" stroke="#E0D1F3" stroke-width="2">
                        <path d="M0.542918539,0 L20.3080814,3.0558695" id="path-13"></path>
                    </g>
                </g>
                <g id="L1" transform="translate(18.500000, 101.613762) scale(-1, 1) rotate(-180.000000) translate(-18.500000, -101.613762) translate(13.000000, 97.113762)">
                    <g id="path-15-link" fill="#000000">
                        <path d="M0,0.1137621 L10.287543,8.113762" id="path-15"></path>
                    </g>
                    <g id="path-15-link" stroke="#E0D1F3" stroke-width="2">
                        <path d="M0,0.1137621 L10.287543,8.113762" id="path-15"></path>
                    </g>
                </g>
            </g>
            <g id="bluerays">
                <g id="L14" transform="translate(148.500000, 106.505568) rotate(180.000000) translate(-148.500000, -106.505568) translate(134.000000, 103.005568)">
                    <g id="path-17-link" fill="#000000">
                        <path d="M0,0.005568 L28.085837,6.005568" id="path-17"></path>
                    </g>
                    <g id="path-17-link" stroke="#9557DE" stroke-width="2">
                        <path d="M0,0.005568 L28.085837,6.005568" id="path-17"></path>
                    </g>
                </g>
                <g id="L12" transform="translate(148.218768, 64.745670) rotate(180.000000) translate(-148.218768, -64.745670) translate(129.718768, 56.245670)">
                    <g id="path-19-link" fill="#000000">
                        <path d="M0,16.0558695 L36.718767,0.1898003" id="path-19"></path>
                    </g>
                    <g id="path-19-link" stroke="#9557DE" stroke-width="2">
                        <path d="M0,16.0558695 L36.718767,0.1898003" id="path-19"></path>
                    </g>
                </g>
                <g id="L10" transform="translate(123.000000, 30.553976) rotate(180.000000) translate(-123.000000, -30.553976) translate(113.000000, 16.553976)">
                    <g id="path-21-link" fill="#000000">
                        <path d="M0.287543,27.8328576 L19.718767,0.7769882" id="path-21"></path>
                    </g>
                    <g id="path-21-link" stroke="#9557DE" stroke-width="2">
                        <path d="M0.287543,27.8328576 L19.718767,0.7769882" id="path-21"></path>
                    </g>
                </g>
                <g id="L8" transform="translate(84.000000, 0.000000)">
                    <g id="path-23-link" fill="#000000">
                        <path d="M0.5,0.537109375 L0.5,35.5371094" id="path-23"></path>
                    </g>
                    <g id="path-23-link" stroke="#9557DE" stroke-width="2">
                        <path d="M0.5,0.537109375 L0.5,35.5371094" id="path-23"></path>
                    </g>
                </g>
                <g id="L6" transform="translate(46.000000, 29.111738) scale(-1, 1) rotate(-180.000000) translate(-46.000000, -29.111738) translate(36.000000, 15.111738)">
                    <g id="path-25-link" fill="#000000">
                        <path d="M0.287543,27.1117389 L19.718767,0.0558695" id="path-25"></path>
                    </g>
                    <g id="path-25-link" stroke="#9557DE" stroke-width="2">
                        <path d="M0.287543,27.1117389 L19.718767,0.0558695" id="path-25"></path>
                    </g>
                </g>
                <g id="L4" transform="translate(18.500000, 64.745670) scale(-1, 1) rotate(-180.000000) translate(-18.500000, -64.745670) translate(0.000000, 56.245670)">
                    <g id="path-27-link" fill="#000000">
                        <path d="M1.42108547e-14,16.0558695 L36.718767,0.1898003" id="path-27"></path>
                    </g>
                    <g id="path-27-link" stroke="#9557DE" stroke-width="2">
                        <path d="M1.42108547e-14,16.0558695 L36.718767,0.1898003" id="path-27"></path>
                    </g>
                </g>
                <g id="L2" transform="translate(19.500000, 106.505568) scale(-1, 1) rotate(-180.000000) translate(-19.500000, -106.505568) translate(5.000000, 103.005568)">
                    <g id="path-29-link" fill="#000000">
                        <path d="M0,0.005568 L28.0858371,6.005568" id="path-29"></path>
                    </g>
                    <g id="path-29-link" stroke="#9557DE" stroke-width="2">
                        <path d="M0,0.005568 L28.0858371,6.005568" id="path-29"></path>
                    </g>
                </g>
            </g>
            <g id="horseshoe" transform="translate(41.000000, 45.000000)">
                <g id="Eye9" transform="translate(70.000000, 61.000000)">
                    <g id="path-31-link" fill="#000000">
                        <path d="M7.2461,4.60536 C6.85548,5.64836 6.4336,6.71476 5.9844,7.77336 L5.980494,7.77336 C5.320334,9.33586 3.515694,10.06636 1.953194,9.40226 C0.390694,8.7421 -0.339806,6.93746 0.324294,5.37886 C0.738354,4.4023 1.128984,3.41796 1.488394,2.45696 L1.488394,2.453054 C2.082144,0.867154 3.851694,0.058554 5.437594,0.652254 C7.027394,1.242094 7.835994,3.011654 7.242294,4.601454 L7.2461,4.60536 Z" id="path-31"></path>
                    </g>
                    <g id="path-31-link" stroke="#F82323" stroke-width="2">
                        <path d="M7.2461,4.60536 C6.85548,5.64836 6.4336,6.71476 5.9844,7.77336 L5.980494,7.77336 C5.320334,9.33586 3.515694,10.06636 1.953194,9.40226 C0.390694,8.7421 -0.339806,6.93746 0.324294,5.37886 C0.738354,4.4023 1.128984,3.41796 1.488394,2.45696 L1.488394,2.453054 C2.082144,0.867154 3.851694,0.058554 5.437594,0.652254 C7.027394,1.242094 7.835994,3.011654 7.242294,4.601454 L7.2461,4.60536 Z" id="path-31"></path>
                    </g>
                </g>
                <g id="Eye8" transform="translate(74.000000, 42.000000)">
                    <g id="path-33-link" fill="#000000">
                        <path d="M7.0742,3.23436 C7.085919,3.62108 7.089825,4.00389 7.089825,4.38276 C7.089825,5.16401 7.066387,5.96476 7.023419,6.76556 L7.019512,6.76556 C6.929669,8.39056 5.585912,9.66396 3.957012,9.66396 C3.898419,9.66396 3.839822,9.66396 3.781232,9.660054 C2.089832,9.566304 0.792932,8.113154 0.886732,6.421754 C0.925794,5.734254 0.945325,5.050654 0.945325,4.382654 C0.945325,4.058434 0.941419,3.730314 0.933607,3.398284 C0.898451,1.706884 2.234407,0.308484 3.921907,0.261584 C5.609407,0.218615 7.019607,1.542784 7.074207,3.234284 L7.0742,3.23436 Z" id="path-33"></path>
                    </g>
                    <g id="path-33-link" stroke="#F82323" stroke-width="2">
                        <path d="M7.0742,3.23436 C7.085919,3.62108 7.089825,4.00389 7.089825,4.38276 C7.089825,5.16401 7.066387,5.96476 7.023419,6.76556 L7.019512,6.76556 C6.929669,8.39056 5.585912,9.66396 3.957012,9.66396 C3.898419,9.66396 3.839822,9.66396 3.781232,9.660054 C2.089832,9.566304 0.792932,8.113154 0.886732,6.421754 C0.925794,5.734254 0.945325,5.050654 0.945325,4.382654 C0.945325,4.058434 0.941419,3.730314 0.933607,3.398284 C0.898451,1.706884 2.234407,0.308484 3.921907,0.261584 C5.609407,0.218615 7.019607,1.542784 7.074207,3.234284 L7.0742,3.23436 Z" id="path-33"></path>
                    </g>
                </g>
                <g id="Eye7" transform="translate(70.000000, 23.000000)">
                    <g id="path-35-link" fill="#000000">
                        <path d="M1.8672,0.62936 C3.3828,-0.13236 5.2305,0.47702 5.9922,1.99266 C6.51173,3.02386 7,4.10206 7.4453,5.19186 C7.76171,5.94967 7.76171,6.79736 7.449207,7.55126 C7.132797,8.30517 6.531237,8.90676 5.773407,9.21536 C5.019497,9.52395 4.167907,9.52005 3.417907,9.203641 C2.663997,8.883331 2.066307,8.277861 1.761707,7.520041 C1.374987,6.574731 0.949207,5.645041 0.503907,4.750541 C0.136717,4.023981 0.074217,3.180241 0.332027,2.406741 C0.589837,1.633301 1.140617,0.992641 1.867227,0.629441 L1.8672,0.62936 Z" id="path-35"></path>
                    </g>
                    <g id="path-35-link" stroke="#F82323" stroke-width="2">
                        <path d="M1.8672,0.62936 C3.3828,-0.13236 5.2305,0.47702 5.9922,1.99266 C6.51173,3.02386 7,4.10206 7.4453,5.19186 C7.76171,5.94967 7.76171,6.79736 7.449207,7.55126 C7.132797,8.30517 6.531237,8.90676 5.773407,9.21536 C5.019497,9.52395 4.167907,9.52005 3.417907,9.203641 C2.663997,8.883331 2.066307,8.277861 1.761707,7.520041 C1.374987,6.574731 0.949207,5.645041 0.503907,4.750541 C0.136717,4.023981 0.074217,3.180241 0.332027,2.406741 C0.589837,1.633301 1.140617,0.992641 1.867227,0.629441 L1.8672,0.62936 Z" id="path-35"></path>
                    </g>
                </g>
                <g id="Eye6" transform="translate(57.000000, 8.000000)">
                    <g id="path-37-link" fill="#000000">
                        <path d="M0.5352,2.48836 C1.38676,1.02356 3.2696,0.52746 4.7344,1.37896 C5.7735,1.98443 6.7813,2.64456 7.75,3.35946 C8.41016,3.83993 8.8516,4.56646 8.9727,5.37506 C9.0977,6.17975 8.894575,7.00396 8.4102,7.66416 C7.92582,8.32041 7.1993,8.75796 6.3907,8.87896 C5.58601,9.00005 4.7618,8.793023 4.1055,8.30474 C3.31644,7.72271 2.4922,7.18364 1.6446,6.69144 C0.1798,5.83597 -0.3163,3.95704 0.5352,2.48834 L0.5352,2.48836 Z" id="path-37"></path>
                    </g>
                    <g id="path-37-link" stroke="#F82323" stroke-width="2">
                        <path d="M0.5352,2.48836 C1.38676,1.02356 3.2696,0.52746 4.7344,1.37896 C5.7735,1.98443 6.7813,2.64456 7.75,3.35946 C8.41016,3.83993 8.8516,4.56646 8.9727,5.37506 C9.0977,6.17975 8.894575,7.00396 8.4102,7.66416 C7.92582,8.32041 7.1993,8.75796 6.3907,8.87896 C5.58601,9.00005 4.7618,8.793023 4.1055,8.30474 C3.31644,7.72271 2.4922,7.18364 1.6446,6.69144 C0.1798,5.83597 -0.3163,3.95704 0.5352,2.48834 L0.5352,2.48836 Z" id="path-37"></path>
                    </g>
                </g>
                <g id="Eye5" transform="translate(38.000000, 4.000000)">
                    <g id="path-39-link" fill="#000000">
                        <path d="M3.3512,0.63676 C3.89417,0.617229 4.445,0.60551 4.9996,0.60551 C5.55819,0.60551 6.1051,0.617229 6.648,0.63676 C8.3199,0.69926 9.6324,2.08986 9.605,3.76176 C9.57375,5.43366 8.2105,6.77736 6.5386,6.77736 C6.499538,6.77736 6.460476,6.77736 6.42532,6.773454 C5.95266,6.757828 5.48001,6.750016 4.99952,6.750016 C4.51903,6.750016 4.0464,6.757828 3.57762,6.77736 C3.538557,6.77736 3.499495,6.781266 3.46434,6.781266 L3.460434,6.77736 C1.788534,6.77736 0.425234,5.43356 0.394034,3.76176 C0.366691,2.08986 1.679234,0.69926 3.351034,0.63676 L3.3512,0.63676 Z" id="path-39"></path>
                    </g>
                    <g id="path-39-link" stroke="#F82323" stroke-width="2">
                        <path d="M3.3512,0.63676 C3.89417,0.617229 4.445,0.60551 4.9996,0.60551 C5.55819,0.60551 6.1051,0.617229 6.648,0.63676 C8.3199,0.69926 9.6324,2.08986 9.605,3.76176 C9.57375,5.43366 8.2105,6.77736 6.5386,6.77736 C6.499538,6.77736 6.460476,6.77736 6.42532,6.773454 C5.95266,6.757828 5.48001,6.750016 4.99952,6.750016 C4.51903,6.750016 4.0464,6.757828 3.57762,6.77736 C3.538557,6.77736 3.499495,6.781266 3.46434,6.781266 L3.460434,6.77736 C1.788534,6.77736 0.425234,5.43356 0.394034,3.76176 C0.366691,2.08986 1.679234,0.69926 3.351034,0.63676 L3.3512,0.63676 Z" id="path-39"></path>
                    </g>
                </g>
                <g id="Eye4" transform="translate(19.000000, 8.000000)">
                    <g id="path-41-link" fill="#000000">
                        <path d="M2.2492,3.35946 C3.21795,2.64462 4.2258,1.98446 5.2648,1.37896 C6.7296,0.5274 8.6125,1.02349 9.464,2.48836 C10.31947,3.95716 9.81947,5.83606 8.3546,6.69146 C7.50694,7.18365 6.6827,7.72266 5.8937,8.30476 C5.23745,8.79304 4.4171,9.00007 3.6085,8.87898 C2.7999,8.75789 2.0733,8.32039 1.589,7.66418 C1.10462,7.00402 0.9015,6.17978 1.0265,5.37508 C1.1515,4.56649 1.589,3.84388 2.2492,3.35948 L2.2492,3.35946 Z" id="path-41"></path>
                    </g>
                    <g id="path-41-link" stroke="#F82323" stroke-width="2">
                        <path d="M2.2492,3.35946 C3.21795,2.64462 4.2258,1.98446 5.2648,1.37896 C6.7296,0.5274 8.6125,1.02349 9.464,2.48836 C10.31947,3.95716 9.81947,5.83606 8.3546,6.69146 C7.50694,7.18365 6.6827,7.72266 5.8937,8.30476 C5.23745,8.79304 4.4171,9.00007 3.6085,8.87898 C2.7999,8.75789 2.0733,8.32039 1.589,7.66418 C1.10462,7.00402 0.9015,6.17978 1.0265,5.37508 C1.1515,4.56649 1.589,3.84388 2.2492,3.35948 L2.2492,3.35946 Z" id="path-41"></path>
                    </g>
                </g>
                <g id="Eye3" transform="translate(8.000000, 23.000000)">
                    <g id="path-43-link" fill="#000000">
                        <path d="M0.5542,5.19146 C0.99951,4.10166 1.4917,3.02346 2.0073,1.99226 C2.76902,0.47666 4.6167,-0.13274 6.1323,0.62896 C7.6479,1.39068 8.2573,3.23446 7.4956,4.75006 C7.04638,5.64068 6.62451,6.57426 6.2378,7.51956 C5.93311,8.27737 5.33546,8.88286 4.5816,9.20316 C3.8316,9.51957 2.98,9.52347 2.2261,9.214879 C1.46829,8.906289 0.8667,8.304719 0.5503,7.550779 C0.2378,6.796869 0.2378,5.949179 0.554207,5.191379 L0.5542,5.19146 Z" id="path-43"></path>
                    </g>
                    <g id="path-43-link" stroke="#F82323" stroke-width="2">
                        <path d="M0.5542,5.19146 C0.99951,4.10166 1.4917,3.02346 2.0073,1.99226 C2.76902,0.47666 4.6167,-0.13274 6.1323,0.62896 C7.6479,1.39068 8.2573,3.23446 7.4956,4.75006 C7.04638,5.64068 6.62451,6.57426 6.2378,7.51956 C5.93311,8.27737 5.33546,8.88286 4.5816,9.20316 C3.8316,9.51957 2.98,9.52347 2.2261,9.214879 C1.46829,8.906289 0.8667,8.304719 0.5503,7.550779 C0.2378,6.796869 0.2378,5.949179 0.554207,5.191379 L0.5542,5.19146 Z" id="path-43"></path>
                    </g>
                </g>
                <g id="Eye2" transform="translate(4.000000, 42.000000)">
                    <g id="path-45-link" fill="#000000">
                        <path d="M4.21826,9.66046 C4.159666,9.664366 4.10107,9.664366 4.04248,9.664366 C2.41358,9.664366 1.06978,8.390966 0.97998,6.765966 C0.933105,5.965186 0.913573,5.164366 0.913573,4.383166 C0.913573,4.004256 0.91748,3.621446 0.929199,3.234766 L0.925292,3.234766 C0.944823,2.414456 1.284672,1.637066 1.878412,1.074566 C2.468252,0.508156 3.261212,0.203476 4.077612,0.226906 C4.897922,0.246438 5.671412,0.594096 6.233812,1.191746 C6.792402,1.785496 7.093192,2.578446 7.065842,3.398746 C7.05803,3.730776 7.054124,4.058906 7.054124,4.383116 C7.054124,5.051086 7.073655,5.734716 7.112717,6.422216 C7.206467,8.113616 5.909617,9.566716 4.218217,9.660516 L4.21826,9.66046 Z" id="path-45"></path>
                    </g>
                    <g id="path-45-link" stroke="#F82323" stroke-width="2">
                        <path d="M4.21826,9.66046 C4.159666,9.664366 4.10107,9.664366 4.04248,9.664366 C2.41358,9.664366 1.06978,8.390966 0.97998,6.765966 C0.933105,5.965186 0.913573,5.164366 0.913573,4.383166 C0.913573,4.004256 0.91748,3.621446 0.929199,3.234766 L0.925292,3.234766 C0.944823,2.414456 1.284672,1.637066 1.878412,1.074566 C2.468252,0.508156 3.261212,0.203476 4.077612,0.226906 C4.897922,0.246438 5.671412,0.594096 6.233812,1.191746 C6.792402,1.785496 7.093192,2.578446 7.065842,3.398746 C7.05803,3.730776 7.054124,4.058906 7.054124,4.383116 C7.054124,5.051086 7.073655,5.734716 7.112717,6.422216 C7.206467,8.113616 5.909617,9.566716 4.218217,9.660516 L4.21826,9.66046 Z" id="path-45"></path>
                    </g>
                </g>
                <g id="Eye1" transform="translate(8.000000, 61.000000)">
                    <g id="path-47-link" fill="#000000">
                        <path d="M7.6801,5.3788 L7.676193,5.3788 C8.340253,6.9374 7.609787,8.7421 6.047293,9.4022 C4.484793,10.06626 2.680093,9.335794 2.019993,7.7733 C1.570773,6.7147 1.144993,5.6483 0.758293,4.6053 L0.758293,4.601393 C0.164543,3.011593 0.973133,1.241993 2.562993,0.652193 C4.148893,0.058443 5.918493,0.867033 6.512193,2.452993 C6.871573,3.413933 7.262193,4.398293 7.676293,5.378793 L7.6801,5.3788 Z" id="path-47"></path>
                    </g>
                    <g id="path-47-link" stroke="#F82323" stroke-width="2">
                        <path d="M7.6801,5.3788 L7.676193,5.3788 C8.340253,6.9374 7.609787,8.7421 6.047293,9.4022 C4.484793,10.06626 2.680093,9.335794 2.019993,7.7733 C1.570773,6.7147 1.144993,5.6483 0.758293,4.6053 L0.758293,4.601393 C0.164543,3.011593 0.973133,1.241993 2.562993,0.652193 C4.148893,0.058443 5.918493,0.867033 6.512193,2.452993 C6.871573,3.413933 7.262193,4.398293 7.676293,5.378793 L7.6801,5.3788 Z" id="path-47"></path>
                    </g>
                </g>
                <g id="Horsehoe">
                    <g id="path-49-link" fill="#000000">
                        <path d="M7.141,75.871 C5.5707,75.871 4.2972,77.1444 4.2972,78.7108 L4.2972,87.1561 C4.2972,88.7264 5.5706,89.9999 7.141,89.9999 L28.485,89.9999 C30.0553,89.9999 31.3248,88.7265 31.3288,87.1561 L31.3288,78.7108 C31.3288,77.1444 30.0554,75.871 28.485,75.871 L25.8209,75.871 C22.4381,70.4608 15.6649,58.16 15.6649,46.383 C15.684432,39.0119 17.9149,31.817 22.0711,25.731 C26.9773,18.8482 34.0201,15.36 43.0011,15.36 C51.9855,15.36 59.0281,18.8483 63.9311,25.731 C68.0873,31.8169 70.3178,39.012 70.3413,46.383 C70.3413,58.16 63.5679,70.461 60.1853,75.871 L57.5173,75.871 C55.947,75.871 54.6775,77.1444 54.6735,78.7108 L54.6735,87.1561 C54.677406,88.7264 55.9469,89.9999 57.5173,89.9999 L78.8613,89.9999 C80.4316,89.9999 81.7051,88.7265 81.7051,87.1561 L81.7051,78.7108 C81.7051,77.1444 80.4317,75.871 78.8613,75.871 L77.7715,75.871 C81.6582,68.078 85.6973,57.351 85.6973,46.383 C85.689488,35.813 82.459,25.5 76.4395,16.813 C70.9707,9.145 60.7325,0.001 43.0015,0.001 C25.2705,0.001 15.0325,9.1455 9.5635,16.813 C3.544,25.5005 0.3135,35.813 0.3057,46.383 C0.3057,57.352 4.3409,68.078 8.2315,75.871 L7.141,75.871 Z" id="path-49"></path>
                    </g>
                    <g id="path-49-link" stroke="#F82323" stroke-width="2">
                        <path d="M7.141,75.871 C5.5707,75.871 4.2972,77.1444 4.2972,78.7108 L4.2972,87.1561 C4.2972,88.7264 5.5706,89.9999 7.141,89.9999 L28.485,89.9999 C30.0553,89.9999 31.3248,88.7265 31.3288,87.1561 L31.3288,78.7108 C31.3288,77.1444 30.0554,75.871 28.485,75.871 L25.8209,75.871 C22.4381,70.4608 15.6649,58.16 15.6649,46.383 C15.684432,39.0119 17.9149,31.817 22.0711,25.731 C26.9773,18.8482 34.0201,15.36 43.0011,15.36 C51.9855,15.36 59.0281,18.8483 63.9311,25.731 C68.0873,31.8169 70.3178,39.012 70.3413,46.383 C70.3413,58.16 63.5679,70.461 60.1853,75.871 L57.5173,75.871 C55.947,75.871 54.6775,77.1444 54.6735,78.7108 L54.6735,87.1561 C54.677406,88.7264 55.9469,89.9999 57.5173,89.9999 L78.8613,89.9999 C80.4316,89.9999 81.7051,88.7265 81.7051,87.1561 L81.7051,78.7108 C81.7051,77.1444 80.4317,75.871 78.8613,75.871 L77.7715,75.871 C81.6582,68.078 85.6973,57.351 85.6973,46.383 C85.689488,35.813 82.459,25.5 76.4395,16.813 C70.9707,9.145 60.7325,0.001 43.0015,0.001 C25.2705,0.001 15.0325,9.1455 9.5635,16.813 C3.544,25.5005 0.3135,35.813 0.3057,46.383 C0.3057,57.352 4.3409,68.078 8.2315,75.871 L7.141,75.871 Z" id="path-49"></path>
                    </g>
                </g>
            </g>
        </g>
    </g>
</svg>