<?xml version="1.0" encoding="UTF-8"?>
<svg width="156px" height="47px" viewBox="0 0 156 47" version="1.1" xmlns="http://www.w3.org/2000/svg" xmlns:xlink="http://www.w3.org/1999/xlink">
    <!-- Generator: Sketch 52.5 (67469) - http://www.bohemiancoding.com/sketch -->
    <title>stae</title>
    <desc>Created with Sketch.</desc>
    <g id="Page-1" stroke="none" stroke-width="1" fill="none" fill-rule="evenodd">
        <g id="stae" transform="translate(-22.000000, -77.000000)">
            <path d="M95.085,98.98 C90.235,97.94 89.348,96.815 89.348,94.972 L89.348,94.91 C89.348,92.976 91.16,91.625 93.756,91.625 C95.801,91.625 97.499,92.198 99.263,93.483 C99.517,93.665 99.782,93.746 100.12,93.746 C100.906,93.746 101.546,93.106 101.546,92.32 C101.546,91.67 101.108,91.272 100.915,91.127 C98.801,89.607 96.612,88.929 93.818,88.929 C89.521,88.929 86.403,91.536 86.403,95.128 L86.403,95.19 C86.403,98.133 87.681,100.37 93.925,101.728 C98.537,102.7 99.412,103.854 99.412,105.642 L99.412,105.704 C99.412,107.748 97.509,109.176 94.785,109.176 C92.155,109.176 90.143,108.42 88.053,106.65 C87.836,106.438 87.488,106.306 87.142,106.306 C86.342,106.306 85.716,106.946 85.716,107.763 C85.716,108.23 85.928,108.652 86.282,108.893 C88.807,110.897 91.558,111.872 94.692,111.872 C99.222,111.872 102.388,109.232 102.388,105.455 L102.388,105.392 C102.388,102.012 100.204,100.096 95.085,98.98 Z M126.105,89.24 L111.03,89.24 C110.385,89.24 109.794,89.664 109.636,90.29 C109.409,91.19 110.104,91.999 110.988,91.999 L116.696,91.999 C116.909,91.999 117.081,92.171 117.081,92.384 L117.081,110.174 C117.081,110.967 117.677,111.659 118.467,111.712 C118.878327,111.739668 119.282734,111.595681 119.584021,111.31429 C119.885309,111.032899 120.056546,110.639256 120.057,110.227 L120.057,92.384 C120.057,92.171 120.229,91.999 120.442,91.999 L126.149,91.999 C127.034,91.999 127.728,91.191 127.501,90.291 C127.342,89.664 126.753,89.241 126.107,89.241 L126.105,89.24 Z M138.028,102.506 L142.07,93.518 C142.133259,93.3757661 142.274333,93.2841125 142.43,93.2841125 C142.585667,93.2841125 142.726741,93.3757661 142.79,93.518 L146.83,102.506 C146.884534,102.627805 146.873702,102.768936 146.801219,102.880992 C146.728736,102.993048 146.604455,103.060796 146.471,103.061 L138.387,103.061 C138.253545,103.060796 138.129264,102.993048 138.056781,102.880992 C137.984298,102.768936 137.973466,102.627805 138.028,102.506 Z M144.305,90.232 C143.973,89.421 143.368,88.992 142.555,88.992 L142.429,88.992 C141.61,88.992 141.029,89.394 140.651,90.223 L131.793,109.593 C131.679941,109.816483 131.618755,110.062592 131.614,110.313 C131.598,111.06 132.229,111.715 132.977,111.715 C133.622,111.715 134.122,111.363 134.382,110.73 L136.493,106.016 C136.555064,105.877657 136.692374,105.788465 136.844,105.788 L148.016,105.788 C148.167,105.788 148.304,105.876 148.367,106.014 L150.477,110.666 C150.768,111.334 151.291,111.716 151.913,111.716 C152.699,111.716 153.339,111.076 153.339,110.289 C153.339,110.084 153.28,109.842 153.161,109.565 L144.305,90.233 L144.305,90.232 Z M176.59,108.832 L164.784,108.832 C164.57176,108.832001 164.399551,108.660239 164.399,108.448 L164.399,102.055 C164.399,101.842 164.571,101.67 164.784,101.67 L175.017,101.67 C175.647,101.67 176.229,101.268 176.394,100.659 C176.633,99.778 175.932,98.943 175.078,98.943 L164.784,98.943 C164.681984,98.9432657 164.584055,98.902926 164.511824,98.8308832 C164.439594,98.7588404 164.399,98.6610166 164.399,98.559 L164.399,92.353 C164.399,92.14 164.571,91.968 164.784,91.968 L176.434,91.968 C177.127,91.968 177.744,91.472 177.833,90.784 C177.884203,90.3947086 177.765287,90.0022212 177.506634,89.7068094 C177.247982,89.4113976 176.874644,89.2416743 176.482,89.241 L162.91,89.241 C162.12,89.241 161.453,89.923 161.453,90.729 L161.453,110.07 C161.453,110.877 162.12,111.559 162.91,111.559 L176.637,111.559 C177.447,111.559 178.095,110.847 177.987,110.016 C177.9,109.329 177.282,108.832 176.589,108.832 L176.59,108.832 Z" id="Shape" fill="#241F47" fill-rule="nonzero"></path>
            <path d="M63.97,94.306 L61.395,94.306 C61.0495149,94.3062653 60.7180891,94.1692079 60.4737005,93.9250068 C60.2293118,93.6808056 60.0919999,93.3494852 60.092,93.004 L60.092,87.384 C60.0922653,86.9250022 59.9101151,86.484713 59.5856484,86.1600588 C59.2611817,85.8354045 58.8209978,85.6529999 58.362,85.653 L41.026,85.653 C40.0705474,85.653 39.296,86.4275474 39.296,87.383 L39.296,101.67 C39.296,102.382447 38.7184473,102.96 38.006,102.96 L35.431,102.96 C34.7185527,102.96 34.141,102.382447 34.141,101.67 L34.141,81.77 C34.141,81.052 34.725,80.469 35.443,80.469 L63.983,80.469 C64.695,80.469 65.273,81.046 65.273,81.759 L65.273,93.005 C65.273,93.724 64.689,94.307 63.97,94.307 M55.312,94.307 L49.714,94.307 C48.735,94.307 47.967,95.041 47.967,96.113 L47.967,110.323 C47.967,111.035447 47.3894473,111.613 46.677,111.613 L35.4,111.613 C34.6875527,111.613 34.11,111.035447 34.11,110.323 L34.123,107.71 C34.123,106.998 34.7,106.42 35.412,106.42 L41.032,106.42 C41.988,106.42 42.764,105.646 42.764,104.69 L42.764,90.416 C42.764,89.696 43.346,89.114 44.066,89.114 L55.318,89.114 C56.036,89.114 56.62,89.697 56.62,90.416 L56.614,93.004 C56.614,93.723 56.031,94.306 55.312,94.306 M55.314,120.264 L26.767,120.264 C26.0488681,120.263448 25.4669998,119.681132 25.467,118.963 L25.467,107.722 C25.467,107.002 26.049,106.42 26.767,106.42 L29.313,106.42 C30.148,106.42 30.673,107.058 30.673,107.804 L30.66,113.358 C30.66,114.231 31.405,115.081 32.407,115.081 L49.659,115.074 C50.729,115.074 51.426,114.204 51.426,113.134 L51.426,99.056 C51.426,98.3435527 52.0035527,97.766 52.716,97.766 L55.333,97.758 C56.051,97.758 56.634,98.341 56.634,99.06 L56.626,118.933 C56.626,119.672 56.031,120.263 55.312,120.263 M67.07,77 L32.405,77 C31.45,77 30.675,77.775 30.675,78.73 L30.675,101.657 C30.675,102.376 30.091,102.959 29.372,102.959 L23.731,102.959 C23.2720022,102.958735 22.831713,103.140885 22.5070588,103.465352 C22.1824045,103.789818 21.9999999,104.230002 22,104.689 L22,122.047 C22,123.003 22.774,123.8 23.73,123.8 L58.348,123.8 C59.305,123.8 60.08,123.002 60.08,122.046 L60.08,99.053 C60.08,98.333 60.662,97.751 61.381,97.751 L67.069,97.751 C68.025,97.751 68.799,96.976 68.799,96.02 L68.799,78.73 C68.8,77.776 68.026,77 67.07,77" id="Shape" fill="#241F47" fill-rule="nonzero"></path>
            <polygon id="Rectangle" points="0 0 200 0 200 200 0 200"></polygon>
        </g>
    </g>
</svg>