<?xml version="1.0" encoding="UTF-8"?>
<svg width="30px" height="25px" viewBox="0 0 30 25" version="1.1" xmlns="http://www.w3.org/2000/svg" xmlns:xlink="http://www.w3.org/1999/xlink">
    <!-- Generator: Sketch 52.5 (67469) - http://www.bohemiancoding.com/sketch -->
    <title>Telegram_logo</title>
    <desc>Created with Sketch.</desc>
    <defs>
        <linearGradient x1="65.97%" y1="43.69%" x2="85.12%" y2="80.24%" id="linearGradient-1">
            <stop stop-color="#EFF7FC" offset="0%"></stop>
            <stop stop-color="#FFFFFF" offset="100%"></stop>
        </linearGradient>
    </defs>
    <g id="Page-1" stroke="none" stroke-width="1" fill="none" fill-rule="evenodd">
        <g id="Telegram_logo">
            <path d="M11.3636364,23.4090909 C10.4800909,23.4090909 10.6302273,23.0754773 10.3255,22.2342045 L7.72727273,13.6831591 L27.7272727,1.81818182" id="Path" fill="#C8DAEA"></path>
            <path d="M11.3636364,23.4090909 C12.0454545,23.4090909 12.3467045,23.0972727 12.7272727,22.7272727 L16.3636364,19.1913636 L11.8277273,16.4561364" id="Path" fill="#A9C9DD"></path>
            <path d="M11.8272727,16.4568182 L22.8181818,24.5770455 C24.0723864,25.2690682 24.9775909,24.9107727 25.29,23.4126136 L29.7638636,2.33011364 C30.2219091,0.493704545 29.0638409,-0.339204545 27.864,0.205522727 L1.59354545,10.3352955 C-0.199659091,11.0545455 -0.189204545,12.0549773 1.26668182,12.50075 L8.00827273,14.6049091 L23.6157727,4.75831818 C24.3525682,4.31152273 25.0287955,4.55172955 24.4737727,5.04431818" id="Path" fill="url(#linearGradient-1)"></path>
        </g>
    </g>
</svg>